<svg xmlns="http://www.w3.org/2000/svg" xmlns:xlink="http://www.w3.org/1999/xlink" viewBox="0 0 23.73 23.7"><defs><style>.cls-1{fill:#95a5a6;}.cls-2{fill:#7f8c8d;}.cls-3{fill:#64b4f5;}.cls-4{fill:#baddfa;}</style></defs><g id="Layer_2" data-name="Layer 2"><image width="1202" height="1335" transform="matrix(0.01, 0, 0, 0.01, 4.94, 3.67)" xlink:href="../Downloads/vippng.com-transparent-bubbles-png-769030.png"/></g><g id="Layer_1" data-name="Layer 1"><path class="cls-1" d="M4.22,2.8l2.12.7.16.1L7.56,3l-.07-.2L7.91.6,9.86.1l1.48,1.7,0,.2a2.6,2.6,0,0,1,1.24,0l0-.2L14.14.1l1.95.5.42,2.2-.07.2,1.06.6.16-.1,2.12-.7,1.41,1.4-.71,2.1-.15.2a10.86,10.86,0,0,1,.62,1h.2l2.19.4.53,1.9-1.71,1.5H22c0,.5,0,.9,0,1.3h.17l1.71,1.5-.53,2-2.19.4-.2-.1a12.21,12.21,0,0,1-.62,1.1l.15.1.71,2.1-1.41,1.5-2.12-.8-.16-.1-1.06.6.07.2-.42,2.2-1.95.5-1.48-1.7,0-.1H11.38l0,.1L9.86,23.8l-1.95-.5-.42-2.2.07-.2L6.5,20.3l-.16.1-2.12.8L2.81,19.7l.7-2.1.16-.1a12.21,12.21,0,0,1-.62-1.1l-.2.1L.66,16.1l-.53-2,1.71-1.5H2c0-.4,0-.8,0-1.3H1.84L.13,9.8.66,7.9l2.19-.4h.2a10.86,10.86,0,0,1,.62-1l-.16-.2-.7-2.1ZM7.05,7A7,7,0,1,0,17,7,7,7,0,0,0,7.05,7Z" transform="translate(-0.13 -0.1)"/><path class="cls-2" d="M6.34,6.3A8,8,0,0,1,17.66,17.6,8,8,0,0,1,6.34,6.3Zm1.48.1L10,8.5a3.62,3.62,0,0,1,2.87-.4l1.39-2.8A7.11,7.11,0,0,0,7.82,6.4ZM6.41,7.8a6.94,6.94,0,0,0-1,6.4l2.72-1.4A3.67,3.67,0,0,1,8.57,10Zm4.18,2.7a2.07,2.07,0,0,0,0,2.9,2,2,0,0,0,2.82,0,2.07,2.07,0,0,0,0-2.9A2.16,2.16,0,0,0,10.59,10.5ZM16,6.3,14.63,9c.06,0,.14.1.2.1A4.08,4.08,0,0,1,16,11.6l3,.5A7,7,0,0,0,17,7,4.63,4.63,0,0,0,16,6.3ZM6.3,16a9.93,9.93,0,0,0,.75.9,6.6,6.6,0,0,0,5,2l-.44-3a3.52,3.52,0,0,1-2.48-1.1c-.06-.1-.1-.1-.15-.2L6.3,16Zm9.37-2.4a5.47,5.47,0,0,1-.84,1.2,3.47,3.47,0,0,1-1.24.8l.46,3.1A8.6,8.6,0,0,0,17,16.9,6.46,6.46,0,0,0,18.69,14l-3-.4Z" transform="translate(-0.13 -0.1)"/></g><g id="Layer_3" data-name="Layer 3"><circle class="cls-3" cx="11.87" cy="11.9" r="7.5"/><path class="cls-4" d="M12.42,7.52s-.34-1.1-1.88-.5A5.34,5.34,0,0,0,7,10.72c-.35,1.51.54,1.68.7,1.76A1.23,1.23,0,0,0,9.19,11.3a3.23,3.23,0,0,1,1.89-2S12.82,8.84,12.42,7.52Z" transform="translate(-0.13 -0.1)"/></g></svg>